<svg xmlns="http://www.w3.org/2000/svg" viewBox="0 0 512 512" role="img" aria-label="Drishya"><title>Drishya</title><circle cx="238" cy="276" r="222" fill="#5170FF"/><path d="M135.5 572.4C126.2 571.0 116.7 568.4 111.0 565.7C101.9 561.5 93.0 552.4 90.1 544.5C83.9 527.8 87.9 510.3 100.6 499.1C112.5 488.6 132.7 484.3 155.5 487.3C162.1 488.1 168.2 489.1 169.0 489.5C170.4 490.0 174.3 469.0 196.4 342.3C210.6 261.0 223.1 189.1 224.1 182.5C226.8 165.5 227.6 145.5 226.0 134.5C224.1 121.0 223.9 121.9 229.6 120.0C239.0 116.7 249.1 115.5 265.5 115.6C276.2 115.7 283.9 116.3 288.8 117.4C307.2 121.5 317.5 131.1 321.1 147.5C322.7 154.9 322.6 172.6 321.0 184.0C319.6 194.2 272.9 461.0 269.9 475.9C267.2 489.2 262.1 504.2 256.5 514.6L252.3 522.7L260.9 524.8C290.3 532.0 327.1 529.7 357.0 518.9C400.5 503.1 432.8 472.7 455.5 426.5C470.1 396.9 478.7 364.8 483.2 324.0C484.8 309.1 484.8 266.6 483.1 252.5C478.3 210.8 465.1 174.6 444.2 146.0C436.5 135.5 415.3 114.8 404.0 106.7C393.2 99.0 368.9 86.6 355.5 82.0C342.4 77.5 325.5 73.4 309.5 70.9C291.9 68.2 256.5 67.2 238.2 68.9C182.8 74.0 141.8 96.0 125.4 129.5C119.8 141.0 118.0 148.2 118.0 159.5C118.0 177.2 124.1 188.3 136.0 192.5C140.8 194.2 152.6 194.5 156.4 193.1C158.7 192.2 158.9 192.3 159.4 195.8C160.8 204.7 155.0 217.3 145.8 225.4C134.4 235.4 119.5 239.7 99.5 238.7C76.9 237.6 61.2 231.3 48.0 218.0C34.6 204.6 28.8 189.1 28.7 166.0C28.6 149.0 30.9 139.1 38.4 123.5C49.4 100.8 67.2 82.1 93.0 66.4C110.5 55.7 136.0 45.5 159.8 39.5C172.9 36.2 200.8 31.5 217.5 29.9C234.7 28.2 287.5 28.1 305.5 29.8C380.8 36.9 442.7 59.2 491.4 96.8C523.5 121.7 550.3 156.2 565.4 192.1C579.7 226.4 585.3 255.9 585.4 297.5C585.5 329.9 582.7 353.6 575.5 382.2C566.4 418.1 546.7 457.4 524.7 483.8C509.2 502.3 486.4 522.0 466.6 533.9C454.8 541.0 431.6 552.0 419.2 556.4C375.7 571.6 320.4 576.5 276.7 569.0C261.1 566.4 252.0 564.0 235.0 558.1L220.8 553.2L212.4 557.7C195.3 566.8 175.3 571.7 152.3 572.4C144.7 572.6 137.2 572.6 135.5 572.4Z" fill="#FFFFFF" transform="matrix(0.53870 0 0 0.53870 68.59 117.15)"/><g transform="rotate(34 430 74)"><path d="M1399.5 305.6C1381.6 298.2 1368.8 290.4 1353.8 277.8C1342.9 268.6 1338.0 263.0 1331.9 252.9C1322.0 236.3 1317.3 218.2 1319.9 205.8C1322.1 194.7 1326.6 188.9 1336.3 184.4C1344.3 180.8 1353.0 180.8 1360.5 184.5C1375.1 191.6 1385.8 210.9 1397.5 251.5C1404.4 275.4 1410.9 309.0 1408.6 309.0C1408.0 309.0 1403.9 307.5 1399.5 305.6ZM1434.5 303.4C1430.6 294.5 1426.4 281.5 1423.8 270.0C1421.8 261.0 1421.5 256.8 1421.5 241.0C1421.5 224.7 1421.8 221.5 1423.8 214.5C1428.8 197.3 1436.0 185.0 1448.6 172.4C1459.3 161.6 1470.0 156.0 1479.6 156.0C1487.2 156.0 1491.4 157.5 1496.7 162.3C1508.1 172.7 1511.3 195.6 1504.2 216.7C1496.5 239.5 1480.3 264.4 1456.1 290.8C1451.4 295.9 1445.2 302.1 1442.3 304.6L1437.0 309.1L1434.5 303.4ZM1478.2 308.1L1468.9 307.5L1474.1 301.0C1497.1 272.0 1535.7 248.2 1565.5 244.5C1576.6 243.2 1590.6 247.2 1598.4 254.0C1607.6 262.1 1610.1 275.5 1604.5 285.8C1602.9 288.8 1600.3 292.3 1598.7 293.6C1586.1 304.2 1556.2 309.2 1508.5 308.8C1497.0 308.7 1483.3 308.4 1478.2 308.1Z" fill="#1B75BC" transform="matrix(0.60792 0 0 0.60792 -459.82 -67.40)"/></g></svg>
